<svg width="60" height="60" viewBox="0 0 60 60" fill="none" xmlns="http://www.w3.org/2000/svg">
<path d="M16.2921 14.6704C14.1477 15.638 11.8112 16.1048 9.45963 16.0354C9.24067 16.0323 9.02442 16.0841 8.83065 16.1861C8.63688 16.2881 8.47177 16.437 8.35042 16.6193C8.22906 16.8016 8.15534 17.0114 8.13599 17.2295C8.11663 17.4476 8.15227 17.6671 8.23963 17.8679L15.0046 32.9079C15.0946 33.1082 15.2339 33.2823 15.4096 33.4139C15.5853 33.5455 15.7916 33.6303 16.009 33.6603C16.2265 33.6903 16.448 33.6645 16.6528 33.5854C16.8576 33.5062 17.0388 33.3764 17.1796 33.2079C18.6905 31.408 20.591 29.9752 22.7371 29.0179L48.0221 17.6504C49.7282 16.9198 51.1295 15.6222 51.9887 13.9771C52.848 12.332 53.1123 10.4406 52.7371 8.62292C52.4797 7.48696 51.9731 6.4224 51.2538 5.50625C50.5345 4.5901 49.6206 3.84526 48.5782 3.32561C47.5358 2.80595 46.3909 2.52447 45.2263 2.50153C44.0618 2.47858 42.9067 2.71474 41.8446 3.19292L16.2921 14.6704Z" fill="#C2F3FF"/>
<path d="M52.7426 8.61055C52.4243 7.28221 51.7671 6.05908 50.8351 5.06055C50.5822 6.4089 50.0058 7.67572 49.1553 8.75217C48.3049 9.82862 47.2058 10.6825 45.9526 11.2405L20.1501 22.8405C17.9627 23.8257 16.0249 25.2902 14.4801 27.1255C14.3385 27.2995 14.1546 27.4341 13.946 27.5164C13.7374 27.5987 13.5111 27.626 13.2889 27.5957C13.0667 27.5653 12.856 27.4782 12.6772 27.3429C12.4983 27.2076 12.3573 27.0286 12.2676 26.823L15.0026 32.908C15.0925 33.1083 15.2319 33.2824 15.4076 33.414C15.5833 33.5456 15.7895 33.6304 16.007 33.6604C16.2245 33.6904 16.446 33.6646 16.6507 33.5855C16.8555 33.5064 17.0368 33.3765 17.1776 33.208C18.6885 31.4081 20.5889 29.9754 22.7351 29.018L48.0226 17.6505C49.7321 16.9204 51.1363 15.6211 51.9967 13.9733C52.857 12.3255 53.1206 10.4306 52.7426 8.61055Z" fill="#66E1FF"/>
<path d="M16.2921 14.6704C14.1477 15.638 11.8112 16.1048 9.45963 16.0354C9.24067 16.0323 9.02442 16.0841 8.83065 16.1861C8.63688 16.2881 8.47177 16.437 8.35042 16.6193C8.22906 16.8016 8.15534 17.0114 8.13599 17.2295C8.11663 17.4476 8.15227 17.6671 8.23963 17.8679L15.0046 32.9079C15.0946 33.1082 15.2339 33.2823 15.4096 33.4139C15.5853 33.5455 15.7916 33.6303 16.009 33.6603C16.2265 33.6903 16.448 33.6645 16.6528 33.5854C16.8576 33.5062 17.0389 33.3764 17.1796 33.2079C18.6905 31.408 20.591 29.9752 22.7371 29.0179L48.0221 17.6504C49.7282 16.9198 51.1295 15.6222 51.9887 13.9771C52.848 12.332 53.1123 10.4406 52.7371 8.62292C52.4797 7.48696 51.9731 6.4224 51.2538 5.50625C50.5345 4.5901 49.6206 3.84526 48.5782 3.32561C47.5358 2.80595 46.3909 2.52447 45.2263 2.50153C44.0618 2.47858 42.9067 2.71474 41.8446 3.19292L16.2921 14.6704Z" stroke="#191919" stroke-linecap="round" stroke-linejoin="round"/>
<path d="M17.5698 52.2603C17.5698 53.65 17.0178 54.9829 16.0351 55.9655C15.0524 56.9482 13.7196 57.5003 12.3298 57.5003C10.9401 57.5003 9.6073 56.9482 8.6246 55.9655C7.64191 54.9829 7.08984 53.65 7.08984 52.2603C7.08984 50.1928 9.76984 46.3928 11.2948 44.4028C11.4173 44.2455 11.5741 44.1181 11.7533 44.0306C11.9324 43.943 12.1292 43.8975 12.3286 43.8975C12.528 43.8975 12.7248 43.943 12.9039 44.0306C13.0831 44.1181 13.2399 44.2455 13.3623 44.4028C14.8873 46.3928 17.5698 50.1928 17.5698 52.2603Z" fill="#FFEF5E" stroke="#191919" stroke-linecap="round" stroke-linejoin="round"/>
<path d="M22.01 29.3332L18.79 22.1657M29.18 26.1107L27.03 21.3307M36.3475 22.8882L33.1225 15.7207M43.5175 19.6657L41.3675 14.8857" stroke="#191919" stroke-linecap="round" stroke-linejoin="round"/>
</svg>
